<?xml version="1.0" encoding="UTF-8"?>
<!-- RunRun icon sprite. Glyphs derived from Heroicons v2 (MIT, github.com/tailwindlabs/heroicons).
     All paths are rendered with stroke=currentColor so they recolor with CSS.
     Usage: <svg class="runrun-icon"><use href="/static/icons/sprite.svg#run"/></svg> -->
<svg xmlns="http://www.w3.org/2000/svg" style="display:none" aria-hidden="true">
  <defs>
    <!-- Actions -->
    <symbol id="run" viewBox="0 0 24 24" fill="none" stroke="currentColor" stroke-width="1.8" stroke-linecap="round" stroke-linejoin="round">
      <path d="M5.25 5.25v13.5l13.5-6.75z"/>
    </symbol>
    <symbol id="stop" viewBox="0 0 24 24" fill="none" stroke="currentColor" stroke-width="1.8" stroke-linecap="round" stroke-linejoin="round">
      <rect x="5.25" y="5.25" width="13.5" height="13.5" rx="1.5"/>
    </symbol>
    <symbol id="refresh" viewBox="0 0 24 24" fill="none" stroke="currentColor" stroke-width="1.8" stroke-linecap="round" stroke-linejoin="round">
      <path d="M4.5 12a7.5 7.5 0 0113.4-4.65M19.5 12a7.5 7.5 0 01-13.4 4.65"/>
      <path d="M17 3.75v3.75h-3.75M7 20.25v-3.75h3.75"/>
    </symbol>
    <symbol id="copy" viewBox="0 0 24 24" fill="none" stroke="currentColor" stroke-width="1.8" stroke-linecap="round" stroke-linejoin="round">
      <rect x="8.25" y="8.25" width="11" height="11" rx="1.5"/>
      <path d="M5.25 15.75V6a.75.75 0 01.75-.75h9.75"/>
    </symbol>
    <symbol id="view" viewBox="0 0 24 24" fill="none" stroke="currentColor" stroke-width="1.8" stroke-linecap="round" stroke-linejoin="round">
      <path d="M2.25 12s3.75-7.5 9.75-7.5S21.75 12 21.75 12 18 19.5 12 19.5 2.25 12 2.25 12z"/>
      <circle cx="12" cy="12" r="3"/>
    </symbol>

    <!-- Status -->
    <symbol id="status-running" viewBox="0 0 24 24" fill="none" stroke="currentColor" stroke-width="1.8" stroke-linecap="round" stroke-linejoin="round">
      <circle cx="12" cy="12" r="9"/>
      <path d="M12 7v5l3 2"/>
    </symbol>
    <symbol id="status-success" viewBox="0 0 24 24" fill="none" stroke="currentColor" stroke-width="1.8" stroke-linecap="round" stroke-linejoin="round">
      <circle cx="12" cy="12" r="9"/>
      <path d="M8 12.5l2.75 2.75L16.5 9.5"/>
    </symbol>
    <symbol id="status-failed" viewBox="0 0 24 24" fill="none" stroke="currentColor" stroke-width="1.8" stroke-linecap="round" stroke-linejoin="round">
      <circle cx="12" cy="12" r="9"/>
      <path d="M9 9l6 6M15 9l-6 6"/>
    </symbol>
    <symbol id="status-pending" viewBox="0 0 24 24" fill="none" stroke="currentColor" stroke-width="1.8" stroke-linecap="round" stroke-linejoin="round">
      <circle cx="12" cy="12" r="9"/>
      <circle cx="8" cy="12" r="0.8" fill="currentColor"/>
      <circle cx="12" cy="12" r="0.8" fill="currentColor"/>
      <circle cx="16" cy="12" r="0.8" fill="currentColor"/>
    </symbol>
    <symbol id="status-idle" viewBox="0 0 24 24" fill="none" stroke="currentColor" stroke-width="1.8" stroke-linecap="round" stroke-linejoin="round">
      <circle cx="12" cy="12" r="9"/>
      <path d="M9 10v4M15 10v4"/>
    </symbol>
    <symbol id="status-queued" viewBox="0 0 24 24" fill="none" stroke="currentColor" stroke-width="1.8" stroke-linecap="round" stroke-linejoin="round">
      <rect x="3.5" y="6" width="17" height="3" rx="1"/>
      <rect x="3.5" y="10.5" width="17" height="3" rx="1"/>
      <rect x="3.5" y="15" width="17" height="3" rx="1"/>
    </symbol>

    <!-- Navigation / forms -->
    <symbol id="chevron-right" viewBox="0 0 24 24" fill="none" stroke="currentColor" stroke-width="1.8" stroke-linecap="round" stroke-linejoin="round">
      <path d="M9 6l6 6-6 6"/>
    </symbol>
    <symbol id="search" viewBox="0 0 24 24" fill="none" stroke="currentColor" stroke-width="1.8" stroke-linecap="round" stroke-linejoin="round">
      <circle cx="11" cy="11" r="6"/>
      <path d="M16 16l4 4"/>
    </symbol>
    <symbol id="filter" viewBox="0 0 24 24" fill="none" stroke="currentColor" stroke-width="1.8" stroke-linecap="round" stroke-linejoin="round">
      <path d="M3.75 5.25h16.5l-6 8v5l-4.5 1.5v-6.5l-6-8z"/>
    </symbol>

    <!-- Misc -->
    <symbol id="info" viewBox="0 0 24 24" fill="none" stroke="currentColor" stroke-width="1.8" stroke-linecap="round" stroke-linejoin="round">
      <circle cx="12" cy="12" r="9"/>
      <path d="M12 8.25h.01M11 12h1v4.5h1"/>
    </symbol>
    <symbol id="warning" viewBox="0 0 24 24" fill="none" stroke="currentColor" stroke-width="1.8" stroke-linecap="round" stroke-linejoin="round">
      <path d="M12 3.75l9.75 17h-19.5z"/>
      <path d="M12 10v4.5M12 17h.01"/>
    </symbol>
    <symbol id="error" viewBox="0 0 24 24" fill="none" stroke="currentColor" stroke-width="1.8" stroke-linecap="round" stroke-linejoin="round">
      <circle cx="12" cy="12" r="9"/>
      <path d="M12 7v6M12 16.5h.01"/>
    </symbol>
    <symbol id="check" viewBox="0 0 24 24" fill="none" stroke="currentColor" stroke-width="2.2" stroke-linecap="round" stroke-linejoin="round">
      <path d="M5 12.5l4.5 4.5L19 7"/>
    </symbol>
    <symbol id="x" viewBox="0 0 24 24" fill="none" stroke="currentColor" stroke-width="2.2" stroke-linecap="round" stroke-linejoin="round">
      <path d="M6 6l12 12M18 6L6 18"/>
    </symbol>
  </defs>
</svg>
